<?xml version="1.0" encoding="UTF-8" standalone="no"?>
<!DOCTYPE svg PUBLIC "-//W3C//DTD SVG 1.1//EN"
 "http://www.w3.org/Graphics/SVG/1.1/DTD/svg11.dtd">
<!-- Generated by graphviz version 2.40.1 (20161225.0304)
 -->
<!-- Title: dependencies Pages: 1 -->
<svg width="1824pt" height="284pt"
 viewBox="0.00 0.00 1824.00 284.00" xmlns="http://www.w3.org/2000/svg" xmlns:xlink="http://www.w3.org/1999/xlink">
<g id="graph0" class="graph" transform="scale(1 1) rotate(0) translate(4 280)">
<title>dependencies</title>
<polygon fill="#ffffff" stroke="transparent" points="-4,4 -4,-280 1820,-280 1820,4 -4,4"/>
<text text-anchor="start" x="887.0091" y="-42.4" font-family="sans-serif" font-weight="bold" font-size="14.00" fill="#000000">Legend</text>
<polygon fill="#ffffb3" stroke="transparent" points="674,-10 674,-30 694,-30 694,-10 674,-10"/>
<text text-anchor="start" x="697.629" y="-15.4" font-family="sans-serif" font-size="14.00" fill="#000000"> &#160;Declarations</text>
<polygon fill="#8dd3c7" stroke="transparent" points="787,-10 787,-30 807,-30 807,-10 787,-10"/>
<text text-anchor="start" x="810.7251" y="-15.4" font-family="sans-serif" font-size="14.00" fill="#000000"> &#160;Module</text>
<polygon fill="#80b1d3" stroke="transparent" points="873,-10 873,-30 893,-30 893,-10 873,-10"/>
<text text-anchor="start" x="896.7812" y="-15.4" font-family="sans-serif" font-size="14.00" fill="#000000"> &#160;Bootstrap</text>
<polygon fill="#fdb462" stroke="transparent" points="970,-10 970,-30 990,-30 990,-10 970,-10"/>
<text text-anchor="start" x="993.6732" y="-15.4" font-family="sans-serif" font-size="14.00" fill="#000000"> &#160;Providers</text>
<polygon fill="#fb8072" stroke="transparent" points="1066,-10 1066,-30 1086,-30 1086,-10 1066,-10"/>
<text text-anchor="start" x="1089.7258" y="-15.4" font-family="sans-serif" font-size="14.00" fill="#000000"> &#160;Exports</text>
<g id="clust1" class="cluster">
<title>cluster_AppModule</title>
<polygon fill="none" stroke="#000000" stroke-dasharray="1,5" points="8,-70 8,-268 1808,-268 1808,-70 8,-70"/>
</g>
<g id="clust2" class="cluster">
<title>cluster_AppModule_declarations</title>
<polygon fill="none" stroke="#000000" points="624,-78 624,-130 1800,-130 1800,-78 624,-78"/>
</g>
<g id="clust11" class="cluster">
<title>cluster_AppModule_imports</title>
<polygon fill="none" stroke="#000000" points="156,-78 156,-130 616,-130 616,-78 156,-78"/>
</g>
<g id="clust13" class="cluster">
<title>cluster_AppModule_bootstrap</title>
<polygon fill="none" stroke="#000000" points="778,-208 778,-260 902,-260 902,-208 778,-208"/>
</g>
<g id="clust14" class="cluster">
<title>cluster_AppModule_providers</title>
<polygon fill="none" stroke="#000000" points="16,-78 16,-130 148,-130 148,-78 16,-78"/>
</g>
<!-- AppComponent -->
<g id="node1" class="node">
<title>AppComponent</title>
<polygon fill="#ffffb3" stroke="#000000" points="1791.9399,-122 1686.0601,-122 1686.0601,-86 1791.9399,-86 1791.9399,-122"/>
<text text-anchor="middle" x="1739" y="-99.8" font-family="Times,serif" font-size="14.00" fill="#000000">AppComponent</text>
</g>
<!-- AppModule -->
<g id="node9" class="node">
<title>AppModule</title>
<polygon fill="#8dd3c7" stroke="#000000" points="881.6571,-187 878.6571,-191 857.6571,-191 854.6571,-187 798.3429,-187 798.3429,-151 881.6571,-151 881.6571,-187"/>
<text text-anchor="middle" x="840" y="-164.8" font-family="Times,serif" font-size="14.00" fill="#000000">AppModule</text>
</g>
<!-- AppComponent&#45;&gt;AppModule -->
<g id="edge1" class="edge">
<title>AppComponent&#45;&gt;AppModule</title>
<path fill="none" stroke="#000000" d="M1739,-122.0908C1739,-145.1328 1739,-182 1739,-182 1739,-182 891.8558,-182 891.8558,-182"/>
<polygon fill="#000000" stroke="#000000" points="891.8558,-178.5001 881.8558,-182 891.8557,-185.5001 891.8558,-178.5001"/>
</g>
<!-- CarouselComponent -->
<g id="node2" class="node">
<title>CarouselComponent</title>
<polygon fill="#ffffb3" stroke="#000000" points="1668.594,-122 1537.406,-122 1537.406,-86 1668.594,-86 1668.594,-122"/>
<text text-anchor="middle" x="1603" y="-99.8" font-family="Times,serif" font-size="14.00" fill="#000000">CarouselComponent</text>
</g>
<!-- CarouselComponent&#45;&gt;AppModule -->
<g id="edge2" class="edge">
<title>CarouselComponent&#45;&gt;AppModule</title>
<path fill="none" stroke="#000000" d="M1603,-122.0449C1603,-143.6623 1603,-177 1603,-177 1603,-177 891.8361,-177 891.8361,-177"/>
<polygon fill="#000000" stroke="#000000" points="891.8362,-173.5001 881.8361,-177 891.8361,-180.5001 891.8362,-173.5001"/>
</g>
<!-- PageNotFoundComponent -->
<g id="node3" class="node">
<title>PageNotFoundComponent</title>
<polygon fill="#ffffb3" stroke="#000000" points="1519.8243,-122 1354.1757,-122 1354.1757,-86 1519.8243,-86 1519.8243,-122"/>
<text text-anchor="middle" x="1437" y="-99.8" font-family="Times,serif" font-size="14.00" fill="#000000">PageNotFoundComponent</text>
</g>
<!-- PageNotFoundComponent&#45;&gt;AppModule -->
<g id="edge3" class="edge">
<title>PageNotFoundComponent&#45;&gt;AppModule</title>
<path fill="none" stroke="#000000" d="M1437,-122.2228C1437,-142.3652 1437,-172 1437,-172 1437,-172 891.9799,-172 891.9799,-172"/>
<polygon fill="#000000" stroke="#000000" points="891.9799,-168.5001 881.9799,-172 891.9798,-175.5001 891.9799,-168.5001"/>
</g>
<!-- BirthdayComponent -->
<g id="node4" class="node">
<title>BirthdayComponent</title>
<polygon fill="#ffffb3" stroke="#000000" points="1336.3258,-122 1205.6742,-122 1205.6742,-86 1336.3258,-86 1336.3258,-122"/>
<text text-anchor="middle" x="1271" y="-99.8" font-family="Times,serif" font-size="14.00" fill="#000000">BirthdayComponent</text>
</g>
<!-- BirthdayComponent&#45;&gt;AppModule -->
<g id="edge4" class="edge">
<title>BirthdayComponent&#45;&gt;AppModule</title>
<path fill="none" stroke="#000000" d="M1271,-122.2222C1271,-140.8285 1271,-167 1271,-167 1271,-167 891.7177,-167 891.7177,-167"/>
<polygon fill="#000000" stroke="#000000" points="891.7177,-163.5001 881.7177,-167 891.7177,-170.5001 891.7177,-163.5001"/>
</g>
<!-- XMasComponent -->
<g id="node5" class="node">
<title>XMasComponent</title>
<polygon fill="#ffffb3" stroke="#000000" points="1187.5437,-122 1072.4563,-122 1072.4563,-86 1187.5437,-86 1187.5437,-122"/>
<text text-anchor="middle" x="1130" y="-99.8" font-family="Times,serif" font-size="14.00" fill="#000000">XMasComponent</text>
</g>
<!-- XMasComponent&#45;&gt;AppModule -->
<g id="edge5" class="edge">
<title>XMasComponent&#45;&gt;AppModule</title>
<path fill="none" stroke="#000000" d="M1130,-122.0336C1130,-139.0597 1130,-162 1130,-162 1130,-162 891.8588,-162 891.8588,-162"/>
<polygon fill="#000000" stroke="#000000" points="891.8588,-158.5001 881.8588,-162 891.8587,-165.5001 891.8588,-158.5001"/>
</g>
<!-- CateringComponent -->
<g id="node6" class="node">
<title>CateringComponent</title>
<polygon fill="#ffffb3" stroke="#000000" points="1053.5408,-122 924.4592,-122 924.4592,-86 1053.5408,-86 1053.5408,-122"/>
<text text-anchor="middle" x="989" y="-99.8" font-family="Times,serif" font-size="14.00" fill="#000000">CateringComponent</text>
</g>
<!-- CateringComponent&#45;&gt;AppModule -->
<g id="edge6" class="edge">
<title>CateringComponent&#45;&gt;AppModule</title>
<path fill="none" stroke="#000000" d="M989,-122.2396C989,-137.5706 989,-157 989,-157 989,-157 891.9013,-157 891.9013,-157"/>
<polygon fill="#000000" stroke="#000000" points="891.9014,-153.5001 881.9013,-157 891.9013,-160.5001 891.9014,-153.5001"/>
</g>
<!-- WeddingComponent -->
<g id="node7" class="node">
<title>WeddingComponent</title>
<polygon fill="#ffffb3" stroke="#000000" points="906.1527,-122 773.8473,-122 773.8473,-86 906.1527,-86 906.1527,-122"/>
<text text-anchor="middle" x="840" y="-99.8" font-family="Times,serif" font-size="14.00" fill="#000000">WeddingComponent</text>
</g>
<!-- WeddingComponent&#45;&gt;AppModule -->
<g id="edge7" class="edge">
<title>WeddingComponent&#45;&gt;AppModule</title>
<path fill="none" stroke="#000000" d="M840,-122.1061C840,-122.1061 840,-140.991 840,-140.991"/>
<polygon fill="#000000" stroke="#000000" points="836.5001,-140.9909 840,-150.991 843.5001,-140.991 836.5001,-140.9909"/>
</g>
<!-- GalleryComponent -->
<g id="node8" class="node">
<title>GalleryComponent</title>
<polygon fill="#ffffb3" stroke="#000000" points="755.8104,-122 632.1896,-122 632.1896,-86 755.8104,-86 755.8104,-122"/>
<text text-anchor="middle" x="694" y="-99.8" font-family="Times,serif" font-size="14.00" fill="#000000">GalleryComponent</text>
</g>
<!-- GalleryComponent&#45;&gt;AppModule -->
<g id="edge8" class="edge">
<title>GalleryComponent&#45;&gt;AppModule</title>
<path fill="none" stroke="#000000" d="M694,-122.2396C694,-137.5706 694,-157 694,-157 694,-157 788.1623,-157 788.1623,-157"/>
<polygon fill="#000000" stroke="#000000" points="788.1623,-160.5001 798.1623,-157 788.1622,-153.5001 788.1623,-160.5001"/>
</g>
<!-- AppComponent  -->
<g id="node14" class="node">
<title>AppComponent </title>
<polygon fill="#80b1d3" stroke="#000000" points="894.439,-252 785.561,-252 785.561,-216 894.439,-216 894.439,-252"/>
<text text-anchor="middle" x="840" y="-229.8" font-family="Times,serif" font-size="14.00" fill="#000000">AppComponent </text>
</g>
<!-- AppModule&#45;&gt;AppComponent  -->
<g id="edge13" class="edge">
<title>AppModule&#45;&gt;AppComponent </title>
<path fill="none" stroke="#000000" stroke-dasharray="1,5" d="M840,-187.1061C840,-187.1061 840,-205.991 840,-205.991"/>
<polygon fill="#000000" stroke="#000000" points="836.5001,-205.9909 840,-215.991 843.5001,-205.991 836.5001,-205.9909"/>
</g>
<!-- BrowserModule -->
<g id="node10" class="node">
<title>BrowserModule</title>
<polygon fill="#8dd3c7" stroke="#000000" points="608.4734,-122 605.4734,-126 584.4734,-126 581.4734,-122 501.5266,-122 501.5266,-86 608.4734,-86 608.4734,-122"/>
<text text-anchor="middle" x="555" y="-99.8" font-family="Times,serif" font-size="14.00" fill="#000000">BrowserModule</text>
</g>
<!-- BrowserModule&#45;&gt;AppModule -->
<g id="edge9" class="edge">
<title>BrowserModule&#45;&gt;AppModule</title>
<path fill="none" stroke="#000000" d="M555,-122.0336C555,-139.0597 555,-162 555,-162 555,-162 788.2533,-162 788.2533,-162"/>
<polygon fill="#000000" stroke="#000000" points="788.2534,-165.5001 798.2533,-162 788.2533,-158.5001 788.2534,-165.5001"/>
</g>
<!-- FormsModule -->
<g id="node11" class="node">
<title>FormsModule</title>
<polygon fill="#8dd3c7" stroke="#000000" points="483.8288,-122 480.8288,-126 459.8288,-126 456.8288,-122 388.1712,-122 388.1712,-86 483.8288,-86 483.8288,-122"/>
<text text-anchor="middle" x="436" y="-99.8" font-family="Times,serif" font-size="14.00" fill="#000000">FormsModule</text>
</g>
<!-- FormsModule&#45;&gt;AppModule -->
<g id="edge10" class="edge">
<title>FormsModule&#45;&gt;AppModule</title>
<path fill="none" stroke="#000000" d="M436,-122.2222C436,-140.8285 436,-167 436,-167 436,-167 788.2866,-167 788.2866,-167"/>
<polygon fill="#000000" stroke="#000000" points="788.2866,-170.5001 798.2866,-167 788.2865,-163.5001 788.2866,-170.5001"/>
</g>
<!-- HttpModule -->
<g id="node12" class="node">
<title>HttpModule</title>
<polygon fill="#8dd3c7" stroke="#000000" points="370.4387,-122 367.4387,-126 346.4387,-126 343.4387,-122 285.5613,-122 285.5613,-86 370.4387,-86 370.4387,-122"/>
<text text-anchor="middle" x="328" y="-99.8" font-family="Times,serif" font-size="14.00" fill="#000000">HttpModule</text>
</g>
<!-- HttpModule&#45;&gt;AppModule -->
<g id="edge11" class="edge">
<title>HttpModule&#45;&gt;AppModule</title>
<path fill="none" stroke="#000000" d="M328,-122.2228C328,-142.3652 328,-172 328,-172 328,-172 788.1009,-172 788.1009,-172"/>
<polygon fill="#000000" stroke="#000000" points="788.1009,-175.5001 798.1009,-172 788.1009,-168.5001 788.1009,-175.5001"/>
</g>
<!-- APP_ROUTES -->
<g id="node13" class="node">
<title>APP_ROUTES</title>
<polygon fill="#8dd3c7" stroke="#000000" points="267.6095,-122 264.6095,-126 243.6095,-126 240.6095,-122 164.3905,-122 164.3905,-86 267.6095,-86 267.6095,-122"/>
<text text-anchor="middle" x="216" y="-99.8" font-family="Times,serif" font-size="14.00" fill="#000000">APP_ROUTES</text>
</g>
<!-- APP_ROUTES&#45;&gt;AppModule -->
<g id="edge12" class="edge">
<title>APP_ROUTES&#45;&gt;AppModule</title>
<path fill="none" stroke="#000000" d="M216,-122.0449C216,-143.6623 216,-177 216,-177 216,-177 788.0887,-177 788.0887,-177"/>
<polygon fill="#000000" stroke="#000000" points="788.0887,-180.5001 798.0887,-177 788.0886,-173.5001 788.0887,-180.5001"/>
</g>
<!-- DataService -->
<g id="node15" class="node">
<title>DataService</title>
<ellipse fill="#fdb462" stroke="#000000" cx="82" cy="-104" rx="58.4415" ry="18"/>
<text text-anchor="middle" x="82" y="-99.8" font-family="Times,serif" font-size="14.00" fill="#000000">DataService</text>
</g>
<!-- DataService&#45;&gt;AppModule -->
<g id="edge14" class="edge">
<title>DataService&#45;&gt;AppModule</title>
<path fill="none" stroke="#000000" d="M82,-122.0908C82,-145.1328 82,-182 82,-182 82,-182 788.1669,-182 788.1669,-182"/>
<polygon fill="#000000" stroke="#000000" points="788.167,-185.5001 798.1669,-182 788.1669,-178.5001 788.167,-185.5001"/>
</g>
</g>
</svg>
